<svg width="1264" height="278" viewBox="0 0 1264 278" version="1.1" xmlns="http://www.w3.org/2000/svg" xmlns:xlink="http://www.w3.org/1999/xlink">
<title>Group 3</title>
<desc>Created using Figma</desc>
<g id="Canvas" transform="translate(1869 1769)">
<g id="Group 3">
<g id="rundb">
<use xlink:href="#path0_fill" transform="translate(-2006 -1850)" fill="#B2B2B2"/>
</g>
<g id="Vector">
<use xlink:href="#path1_fill" transform="matrix(-0.965926 0.258819 -0.258819 -0.965926 -605.749 -1554.94)" fill="#B2B2B2"/>
<use xlink:href="#path2_fill" transform="matrix(-0.965926 0.258819 -0.258819 -0.965926 -605.749 -1554.94)" fill="#B2B2B2"/>
<use xlink:href="#path3_fill" transform="matrix(-0.965926 0.258819 -0.258819 -0.965926 -605.749 -1554.94)" fill="#B2B2B2"/>
<use xlink:href="#path4_fill" transform="matrix(-0.965926 0.258819 -0.258819 -0.965926 -605.749 -1554.94)" fill="#B2B2B2"/>
<use xlink:href="#path5_fill" transform="matrix(-0.965926 0.258819 -0.258819 -0.965926 -605.749 -1554.94)" fill="#B2B2B2"/>
</g>
</g>
</g>
<defs>
<path id="path0_fill" d="M 161.358 208.646C 166.766 195.351 175.441 185.099 187.384 177.888C 199.327 170.677 213.861 167.072 230.986 167.072L 230.986 192.76L 223.212 192.76C 205.411 192.76 190.651 197.605 178.934 207.294C 167.217 216.758 161.358 232.306 161.358 253.938L 161.358 355L 137.36 355L 137.36 170.452L 161.358 170.452L 161.358 208.646ZM 421.657 170.452L 421.657 355L 397.997 355L 397.997 309.37C 393.265 325.369 384.703 337.537 372.309 345.874C 359.916 354.211 345.72 358.38 329.721 358.38C 308.089 358.38 290.513 351.62 276.993 338.1C 263.699 324.355 257.051 304.3 257.051 277.936L 257.051 170.452L 280.711 170.452L 280.711 275.908C 280.711 296.188 285.781 311.736 295.921 322.552C 306.061 333.143 319.919 338.438 337.495 338.438C 355.973 338.438 370.619 332.579 381.435 320.862C 392.477 308.919 397.997 291.456 397.997 268.472L 397.997 170.452L 421.657 170.452ZM 565.653 167.072C 587.06 167.072 604.411 173.945 617.705 187.69C 631.225 201.21 637.985 221.152 637.985 247.516L 637.985 355L 614.663 355L 614.663 249.206C 614.663 229.151 609.593 213.829 599.453 203.238C 589.313 192.422 575.455 187.014 557.879 187.014C 539.402 187.014 524.643 192.985 513.601 204.928C 502.785 216.645 497.377 233.996 497.377 256.98L 497.377 355L 473.379 355L 473.379 170.452L 497.377 170.452L 497.377 215.744C 502.109 199.971 510.672 187.915 523.065 179.578C 535.459 171.241 549.655 167.072 565.653 167.072ZM 757.22 165.382C 772.994 165.382 786.401 169.1 797.442 176.536C 808.709 183.972 816.821 193.999 821.778 206.618L 821.778 104.88L 869.098 104.88L 869.098 355L 821.778 355L 821.778 315.792C 816.821 328.411 808.709 338.551 797.442 346.212C 786.401 353.648 772.994 357.366 757.22 357.366C 741.447 357.366 727.251 353.535 714.632 345.874C 702.014 338.213 692.099 327.171 684.888 312.75C 677.903 298.103 674.41 280.978 674.41 261.374C 674.41 241.77 677.903 224.757 684.888 210.336C 692.099 195.689 702.014 184.535 714.632 176.874C 727.251 169.213 741.447 165.382 757.22 165.382ZM 772.092 206.956C 757.22 206.956 745.278 211.801 736.264 221.49C 727.251 231.179 722.744 244.474 722.744 261.374C 722.744 278.274 727.251 291.569 736.264 301.258C 745.278 310.722 757.22 315.454 772.092 315.454C 786.514 315.454 798.344 310.609 807.582 300.92C 817.046 291.005 821.778 277.823 821.778 261.374C 821.778 244.699 817.046 231.517 807.582 221.828C 798.344 211.913 786.514 206.956 772.092 206.956ZM 1024.17 165.382C 1039.94 165.382 1054.14 169.213 1066.75 176.874C 1079.37 184.535 1089.17 195.689 1096.16 210.336C 1103.37 224.757 1106.98 241.77 1106.98 261.374C 1106.98 280.978 1103.37 298.103 1096.16 312.75C 1089.17 327.171 1079.37 338.213 1066.75 345.874C 1054.14 353.535 1039.94 357.366 1024.17 357.366C 1008.39 357.366 994.873 353.648 983.606 346.212C 972.565 338.551 964.678 328.411 959.946 315.792L 959.946 355L 912.288 355L 912.288 104.88L 959.946 104.88L 959.946 206.618C 964.678 193.999 972.565 183.972 983.606 176.536C 994.873 169.1 1008.39 165.382 1024.17 165.382ZM 1009.29 206.956C 994.873 206.956 982.93 211.913 973.466 221.828C 964.228 231.517 959.608 244.699 959.608 261.374C 959.608 277.823 964.228 291.005 973.466 300.92C 982.93 310.609 994.873 315.454 1009.29 315.454C 1024.17 315.454 1036.11 310.722 1045.12 301.258C 1054.14 291.569 1058.64 278.274 1058.64 261.374C 1058.64 244.474 1054.14 231.179 1045.12 221.49C 1036.11 211.801 1024.17 206.956 1009.29 206.956Z"/>
<path id="path1_fill" d="M 232.828 74.4827C 232.828 74.4827 116.414 124.138 0 74.4827L 0 124.138C 113.873 172.138 232.828 124.138 232.828 124.138L 232.828 74.4827Z"/>
<path id="path2_fill" d="M 232.828 0C 232.828 0 116.414 49.655 0 0L 0 49.655C 113.873 97.6551 232.828 49.655 232.828 49.655L 232.828 0Z"/>
<path id="path3_fill" d="M 232.828 74.4827C 232.828 74.4827 116.414 124.138 0 74.4827L 0 124.138C 113.873 172.138 232.828 124.138 232.828 124.138L 232.828 74.4827Z"/>
<path id="path4_fill" d="M 232.828 150.62C 232.828 150.62 116.414 200.275 0 150.62L 0 200.275C 113.873 248.275 232.828 200.275 232.828 200.275L 232.828 150.62Z"/>
<path id="path5_fill" d="M 232.828 150.62C 232.828 150.62 116.414 200.275 0 150.62L 0 200.275C 113.873 248.275 232.828 200.275 232.828 200.275L 232.828 150.62Z"/>
</defs>
</svg>
